<svg width="90" height="90" viewBox="0 0 90 90" fill="none" xmlns="http://www.w3.org/2000/svg">
<g clip-path="url(#clip0)">
<path d="M69.1288 77.9101C68.4345 77.6936 67.6946 78.0807 67.4773 78.7755L66.4067 82.2029C65.4425 85.2895 62.6221 87.3633 59.3882 87.3633H30.6557C27.4219 87.3633 24.6015 85.2895 23.6373 82.2029L13.9915 51.3262C12.6835 47.1391 13.2413 42.5913 15.5222 38.8493C15.9012 38.2275 15.7043 37.4165 15.0826 37.0373C14.4607 36.6581 13.6496 36.855 13.2706 37.4769C10.5951 41.8669 9.94044 47.2012 11.4748 52.1125L21.1207 82.989C22.4304 87.1826 26.2623 90 30.6557 90H59.3882C63.7817 90 67.6136 87.1826 68.9235 82.989L69.9942 79.5616C70.2111 78.8666 69.8237 78.1272 69.1288 77.9101V77.9101Z" fill="#C24D3E"/>
<path d="M68.5656 30.5546C65.5808 29.2569 62.5519 28.1909 59.5401 27.3735L62.3428 21.0463H69.0523C70.8289 21.0463 72.2744 19.6008 72.2744 17.8242V11.0162C72.2744 9.23959 70.8289 7.79414 69.0523 7.79414H62.4386C62.2767 7.52203 62.1053 7.25449 61.9214 6.99346L58.8312 2.60719C57.6809 0.974707 55.8019 0 53.8047 0H36.2389C34.2418 0 32.3627 0.974707 31.2124 2.60736L28.1222 6.99346C25.6054 10.566 25.1413 15.2677 26.9111 19.2635L30.4378 27.2248C27.3206 28.0552 24.2074 29.1614 21.1623 30.5249C19.9318 31.0748 18.7648 31.7658 17.6938 32.5782C17.1137 33.0184 17.0002 33.8453 17.4403 34.4255C17.6996 34.7672 18.0932 34.9471 18.4915 34.9471C18.7692 34.9471 19.0491 34.8599 19.2873 34.6792C20.1983 33.988 21.1911 33.4004 22.239 32.9319C25.2875 31.5666 28.4043 30.4724 31.5195 29.6677L32.4346 31.7334C32.4909 31.8602 32.5522 31.9836 32.6174 32.1042C29.5107 32.8787 26.3916 33.9625 23.3167 35.338C17.5365 37.9245 14.6092 44.46 16.5078 50.5399L26.1533 81.417C26.7738 83.3964 28.5834 84.7264 30.6563 84.7264H59.3877C61.4619 84.7264 63.2709 83.3959 63.8893 81.4157L73.4887 50.6893C75.4091 44.5431 72.3887 37.9666 66.4631 35.392C63.4277 34.0722 60.37 33.0177 57.3441 32.2444C57.4399 32.0794 57.5302 31.9103 57.6088 31.7331L58.459 29.8136C61.476 30.6102 64.5166 31.6695 67.5141 32.9727C74.6771 36.0875 78.3274 44.0423 76.0045 51.4765L69.3127 72.9025C69.0956 73.5975 69.483 74.3368 70.178 74.5541C70.3088 74.5949 70.4412 74.6144 70.5714 74.6144C71.1329 74.6144 71.6534 74.2528 71.8295 73.6887L78.5213 52.2628C81.2468 43.5401 76.9667 34.2077 68.5656 30.5546V30.5546ZM69.0523 10.4309C69.3751 10.4309 69.6377 10.6935 69.6377 11.0162V17.8242C69.6377 18.147 69.3751 18.4096 69.0523 18.4096H63.4718C64.3929 15.8258 64.4252 13.0119 63.6154 10.4307H69.0523V10.4309ZM30.2778 8.51203L33.3679 4.12594C34.0249 3.19342 35.0982 2.63672 36.2389 2.63672H53.8047C54.9453 2.63672 56.0187 3.19342 56.6757 4.12594L59.766 8.51203C61.7525 11.3317 62.1186 15.0421 60.7219 18.1958L55.1983 30.6654C54.7743 31.6222 53.8242 32.2406 52.7778 32.2406H37.266C36.2196 32.2406 35.2696 31.6222 34.8456 30.6656L29.3221 18.196C27.9251 15.0421 28.2915 11.3316 30.2778 8.51203V8.51203ZM45.0218 59.1416C47.8533 59.1416 50.1569 56.8382 50.1569 54.0065V44.823C51.4121 46.1254 52.1404 47.8763 52.1404 49.7565V65.0758C52.1404 69.0014 48.9468 72.1949 45.0213 72.1949C41.0957 72.1949 37.9021 69.0014 37.9021 65.0758V49.7565C37.9021 47.877 38.6307 46.1259 39.8869 44.8226V54.0065C39.8869 56.8382 42.1903 59.1416 45.0218 59.1416V59.1416ZM47.5202 54.0065C47.5202 55.3841 46.3994 56.5049 45.0218 56.5049C43.6442 56.5049 42.5236 55.3841 42.5236 54.0065V34.8771H47.5202V54.0065ZM70.9722 49.9032L61.3728 80.63C61.1002 81.5033 60.3025 82.09 59.388 82.09H30.6566C29.7422 82.09 28.9436 81.5027 28.6701 80.6298L19.025 49.7542C17.5245 44.9488 19.8327 39.786 24.3939 37.7452C27.8582 36.1953 31.3761 35.0357 34.8585 34.2926C35.5901 34.6678 36.4112 34.8775 37.266 34.8775H39.8869V41.4613C37.0172 43.2343 35.2654 46.3419 35.2654 49.7568V65.0762C35.2654 70.4556 39.6418 74.832 45.0213 74.832C50.4007 74.832 54.7771 70.4556 54.7771 65.0762V49.7568C54.7771 46.3405 53.0258 43.2332 50.1569 41.4622V34.8775H52.7778C53.5544 34.8775 54.3041 34.7063 54.9835 34.3937C58.4249 35.1492 61.9309 36.2969 65.4122 37.8105C70.0996 39.8471 72.4899 45.0459 70.9722 49.9032Z" fill="#C24D3E"/>
<path d="M59.5143 45.3809H61.2684C61.9965 45.3809 62.5867 44.7908 62.5867 44.0626C62.5867 43.3343 61.9965 42.7442 61.2684 42.7442H59.5143C58.7862 42.7442 58.1959 43.3343 58.1959 44.0626C58.1959 44.7908 58.7862 45.3809 59.5143 45.3809Z" fill="#C24D3E"/>
<path d="M59.5143 56.6852H61.2684C61.9965 56.6852 62.5867 56.0951 62.5867 55.3669C62.5867 54.6386 61.9965 54.0485 61.2684 54.0485H59.5143C58.7862 54.0485 58.1959 54.6386 58.1959 55.3669C58.1959 56.0951 58.7862 56.6852 59.5143 56.6852Z" fill="#C24D3E"/>
<path d="M61.2686 65.3528H59.5144C58.7863 65.3528 58.1961 65.9429 58.1961 66.6712C58.1961 67.3995 58.7863 67.9896 59.5144 67.9896H61.2686C61.9966 67.9896 62.5869 67.3995 62.5869 66.6712C62.5869 65.9429 61.9966 65.3528 61.2686 65.3528Z" fill="#C24D3E"/>
</g>
<defs>
<clipPath id="clip0">
<rect width="90" height="90" fill="white"/>
</clipPath>
</defs>
</svg>
