<svg width="90" height="90" viewBox="0 0 90 90" fill="none" xmlns="http://www.w3.org/2000/svg">
<g clip-path="url(#clip0)">
<path d="M16.8514 24.4639C21.1162 24.4639 24.5734 21.0067 24.5734 16.7418C24.5734 12.4777 21.1162 9.02051 16.8514 9.02051C12.5873 9.02051 9.13007 12.4777 9.13007 16.7418C9.13519 21.0045 12.5887 24.4588 16.8514 24.4639ZM16.8514 12.0169C19.4615 12.0169 21.5771 14.1325 21.5771 16.7418C21.5771 19.3519 19.4615 21.4675 16.8514 21.4675C14.242 21.4675 12.1264 19.3519 12.1264 16.7418C12.1293 14.1339 14.2435 12.0205 16.8514 12.0169Z" fill="#C24D3E"/>
<path d="M84.0331 66.5533L83.4545 51.4369L86.2738 47.5598L82.8553 41.276L83.5415 39.164L90.0002 36.0894V29.8304L83.5415 26.7558L82.8553 24.6438L86.2738 18.36L82.5942 13.2992L75.562 14.6072L73.7646 13.3007L72.8355 6.20997L66.8874 4.2758L61.9664 9.46675H59.7455L54.8245 4.2758L48.8749 6.20997L48.5845 8.42139L27.7761 7.18218L26.3737 5.77983L25.986 2.63351L20.3708 0.299927L17.869 2.25458H15.8404L13.332 0.299927L7.71383 2.63059L7.32758 5.77691L5.88939 7.2151L2.74307 7.60208L0.408749 13.2232L2.36706 15.7309V17.7638L0.408749 20.2612L2.26538 24.7397L0.198068 51.2453C0.15125 51.5832 0.124914 51.9234 0.118331 52.2636V52.3192H0.109552V52.4362C0.105163 55.4757 1.63992 58.3111 4.18711 59.9703C6.73431 61.6294 9.94866 61.8861 12.727 60.6535L21.5932 56.9593C20.1565 61.0156 21.8163 65.5204 25.5427 67.674L11.8477 72.0866C7.31734 72.9901 4.20979 77.181 4.66041 81.7787C5.11104 86.3764 8.97353 89.8833 13.5931 89.8906H13.6722L68.8384 86.9974L69.6834 89.023L74.4471 90.0004L78.314 86.2439L79.2986 85.9177L84.6454 86.6068L87.8744 82.9689L86.554 77.7421L86.7639 76.7245L90.0331 72.4385L88.502 67.824L84.0331 66.5533ZM51.5984 8.47333L53.951 7.70961L58.4573 12.4631H63.2517L67.758 7.70961L70.112 8.47333L70.9613 14.9686L74.8414 17.7879L81.2833 16.5897L82.7354 18.5897L79.6073 24.3454L81.0901 28.9072L87.0038 31.7236V34.1962L81.0901 37.0126L79.6073 41.5744L82.7354 47.3286L81.2833 49.3287L74.8414 48.1304L70.9613 50.9497L70.112 57.4443L67.758 58.2087L63.2517 53.4552H58.4573L53.951 58.2087L51.5984 57.4443L50.7477 50.9527L46.8676 48.1319L40.425 49.3301L38.9722 47.3301L42.1002 41.5773L40.6189 37.014L34.7052 34.1977V31.7251L40.6189 28.9087L42.1002 24.3454L38.9722 18.5926L40.425 16.5926L46.8676 17.7909L50.7477 14.9671L51.5984 8.47333ZM3.855 12.7572L4.8433 10.36L7.28442 10.06L10.1784 7.17047L10.4783 4.73008L12.8755 3.74105L14.8126 5.25386H18.9099L20.8382 3.74544L23.2355 4.73447L23.5347 7.1734L26.422 10.0681L28.8624 10.3673L29.8529 12.7645L28.3394 14.7016V18.7989L29.8529 20.736L28.8624 23.1332L26.422 23.4332L23.5274 26.3278L23.2274 28.7682L20.8309 29.758L18.8938 28.2452H14.8038L12.866 29.758L10.4695 28.7682L10.1696 26.3278L7.27783 23.4178L4.83891 23.1186L3.85061 20.7214L5.36341 18.7843V14.6943L3.855 12.7572ZM3.10591 52.4633L3.12346 52.2292C3.42559 49.1421 6.15713 46.8729 9.24785 47.1428C12.3386 47.4128 14.6356 50.1209 14.3971 53.2146C14.1594 56.3075 11.4754 58.6323 8.38025 58.4267C5.28441 58.2204 2.9318 55.5606 3.10591 52.4633ZM30.0731 53.9344C33.3826 53.9344 36.0658 56.6176 36.0658 59.9271C36.0658 63.2365 33.3826 65.9198 30.0731 65.9198C26.7629 65.9198 24.0804 63.2365 24.0804 59.9271C24.0804 56.6176 26.7629 53.9344 30.0731 53.9344ZM7.60044 80.9016C7.60702 78.5738 8.96109 76.4612 11.073 75.4824L12.5215 75.0164C14.7417 74.6221 16.9948 75.5087 18.351 77.3098C19.7073 79.1115 19.9355 81.5219 18.9428 83.5461C17.9494 85.5702 15.9026 86.8643 13.6487 86.8943H13.5749C10.272 86.884 7.60044 84.2044 7.60044 80.9016V80.9016ZM20.5954 86.5241C22.2289 84.5014 22.9034 81.8687 22.444 79.3098C21.9838 76.7509 20.4344 74.5175 18.1981 73.1905L32.831 68.4831C35.9919 67.497 38.3548 64.8518 38.9802 61.6001C39.6057 58.3484 38.3928 55.0163 35.8237 52.9271C33.2538 50.8385 29.7439 50.3316 26.6883 51.6074L17.5859 55.4011C18.9004 51.66 17.6034 47.4998 14.3956 45.1684C11.1871 42.8378 6.83014 42.8897 3.67796 45.2957L5.17614 26.1823L5.90255 26.2722L7.34075 27.7104L7.72773 30.8567L13.3474 33.1816L15.8492 31.2342H17.8821L20.3825 33.1816L25.986 30.8626L26.3737 27.7163L27.8119 26.2781L30.9583 25.8896L33.2838 20.2737L31.3357 17.7726V15.7309L33.2838 13.229L32.1331 10.4485L48.2012 11.3995L47.9525 13.3022L46.1544 14.6072L39.1236 13.2992L35.444 18.36L38.861 24.6438L38.1763 26.7514L31.7176 29.8304V36.0894L38.1748 39.164L38.861 41.276L35.444 47.5598L39.1236 52.6205L46.1544 51.3126L47.9525 52.6176L48.8808 59.7098L54.8303 61.644L59.7521 56.453H61.9723L66.8933 61.644L72.8428 59.7098L73.7719 52.6191L75.5693 51.3126L80.4954 52.2292L80.8539 61.6038L80.4713 60.6879L75.7061 59.7084L71.8304 63.4626L70.8458 63.791L65.499 63.1019L62.27 66.7391L63.5875 71.9666L63.3776 72.9835L60.1083 77.2688L61.6438 81.884L66.8289 83.3588L67.6065 84.0479V84.0581L20.5954 86.5241ZM83.9687 75.4509L83.483 77.8094L84.581 82.1642L83.4559 83.4305L79.0016 82.8599L76.7185 83.6178L73.4961 86.7443L71.8377 86.4056L70.1084 82.2622L68.311 80.6631L63.9913 79.4349L63.4551 77.8255L66.1793 74.2556L66.6629 71.8993L65.5648 67.5438L66.6899 66.2761L71.1442 66.8488L73.4288 66.0902L76.6527 62.9622L78.311 63.3038L80.0419 67.4494L81.8392 69.0449L86.1589 70.2717L86.6937 71.8811L83.9687 75.4509Z" fill="#C24D3E"/>
<path d="M12.095 52.4362C12.095 54.0909 10.7533 55.4325 9.09861 55.4325C7.44389 55.4325 6.10226 54.0909 6.10226 52.4362C6.10226 50.7814 7.44389 49.4398 9.09861 49.4398C10.7533 49.4398 12.095 50.7814 12.095 52.4362Z" fill="#C24D3E"/>
<path d="M33.0694 59.9271C33.0694 61.5818 31.7278 62.9234 30.0731 62.9234C28.4184 62.9234 27.0767 61.5818 27.0767 59.9271C27.0767 58.2724 28.4184 56.9307 30.0731 56.9307C31.7278 56.9307 33.0694 58.2724 33.0694 59.9271Z" fill="#C24D3E"/>
<path d="M16.5895 80.9015C16.5895 82.5562 15.2479 83.8979 13.5931 83.8979C11.9384 83.8979 10.5968 82.5562 10.5968 80.9015C10.5968 79.2468 11.9384 77.9052 13.5931 77.9052C15.2479 77.9052 16.5895 79.2468 16.5895 80.9015Z" fill="#C24D3E"/>
<path d="M75.0184 67.418C70.8809 67.418 67.5275 70.772 67.5275 74.9089C67.5275 79.0457 70.8809 82.3997 75.0184 82.3997C79.1552 82.3997 82.5093 79.0457 82.5093 74.9089C82.5042 70.7735 79.153 67.4231 75.0184 67.418ZM75.0184 79.4034C72.5363 79.4034 70.5239 77.3909 70.5239 74.9089C70.5239 72.4268 72.5363 70.4143 75.0184 70.4143C77.5005 70.4143 79.513 72.4268 79.513 74.9089C79.513 77.3909 77.5005 79.4034 75.0184 79.4034Z" fill="#C24D3E"/>
<path d="M60.0366 47.9417C68.311 47.9417 75.0184 41.2343 75.0184 32.9599C75.0184 24.6856 68.311 17.9781 60.0366 17.9781C51.7623 17.9781 45.0549 24.6856 45.0549 32.9599C45.0636 41.2306 51.7659 47.9329 60.0366 47.9417ZM60.0366 20.9745C66.6555 20.9745 72.0221 26.3403 72.0221 32.9599C72.0221 39.5796 66.6555 44.9453 60.0366 44.9453C53.417 44.9453 48.0512 39.5796 48.0512 32.9599C48.0585 26.3439 53.4199 20.9818 60.0366 20.9745Z" fill="#C24D3E"/>
<path d="M60.0366 41.9489C65.0008 41.9489 69.0257 37.9241 69.0257 32.9599C69.0257 27.9957 65.0008 23.9708 60.0366 23.9708C55.0717 23.9708 51.0476 27.9957 51.0476 32.9599C51.0527 37.9226 55.0739 41.9438 60.0366 41.9489ZM60.0366 26.9672C63.3461 26.9672 66.0294 29.6504 66.0294 32.9599C66.0294 36.2693 63.3461 38.9526 60.0366 38.9526C56.7265 38.9526 54.0439 36.2693 54.0439 32.9599C54.0439 29.6504 56.7265 26.9672 60.0366 26.9672Z" fill="#C24D3E"/>
<path d="M81.0111 4.49453C81.0111 6.97662 83.0236 8.98906 85.5056 8.98906C87.9877 8.98906 90.0002 6.97662 90.0002 4.49453C90.0002 2.01244 87.9877 0 85.5056 0C83.0236 0 81.0111 2.01244 81.0111 4.49453ZM87.0038 4.49453C87.0038 5.32189 86.333 5.99271 85.5056 5.99271C84.6783 5.99271 84.0075 5.32189 84.0075 4.49453C84.0075 3.66717 84.6783 2.99635 85.5056 2.99635C86.333 2.99635 87.0038 3.66717 87.0038 4.49453Z" fill="#C24D3E"/>
<path d="M42.0585 2.99636C42.0585 4.65108 40.7169 5.99271 39.0621 5.99271C37.4074 5.99271 36.0658 4.65108 36.0658 2.99636C36.0658 1.34163 37.4074 0 39.0621 0C40.7169 0 42.0585 1.34163 42.0585 2.99636Z" fill="#C24D3E"/>
</g>
<defs>
<clipPath id="clip0">
<rect width="90" height="90" fill="white"/>
</clipPath>
</defs>
</svg>
