<svg width="90" height="90" viewBox="0 0 90 90" fill="none" xmlns="http://www.w3.org/2000/svg">
<g clip-path="url(#clip0)">
<path d="M89.8265 49.1573C89.0184 41.0294 85.3873 33.3668 79.6015 27.5808C74.657 22.6366 68.6051 19.4593 62.2372 18.0465V13.5802C64.8381 12.9331 66.7714 10.5788 66.7714 7.78052C66.7714 4.48492 64.0903 1.80386 60.7947 1.80386H48.1383C44.8427 1.80386 42.1616 4.48492 42.1616 7.78052C42.1616 10.5786 44.0949 12.9329 46.6956 13.5802V18.059C40.3472 19.4777 34.3153 22.6506 29.3849 27.581C28.306 28.66 27.311 29.7918 26.4003 30.9682C26.3562 30.9648 26.312 30.9615 26.267 30.9615H13.7405C12.7698 30.9615 11.9827 31.7485 11.9827 32.7193C11.9827 33.6902 12.7698 34.4772 13.7405 34.4772H24.0084C22.7196 36.6349 21.6803 38.901 20.8893 41.2336H1.75784C0.787161 41.2336 0 42.0206 0 42.9915C0 43.9623 0.787161 44.7493 1.75784 44.7493H19.8959C19.3893 46.9731 19.0986 49.2364 19.0235 51.5059H11.2502C10.2795 51.5059 9.49234 52.2929 9.49234 53.2637C9.49234 54.2346 10.2795 55.0216 11.2502 55.0216H19.0796C19.228 57.2969 19.5938 59.5603 20.1772 61.7782H8.7892C7.81852 61.7782 7.03136 62.5652 7.03136 63.536C7.03136 64.5069 7.81852 65.2939 8.7892 65.2939H21.299C23.0235 69.8557 25.7184 74.1312 29.3849 77.7977C35.1763 83.5891 42.8468 87.2212 50.9832 88.025C52.1444 88.1396 53.3065 88.1964 54.467 88.1964C61.3265 88.1964 68.0987 86.2113 73.8451 82.4692C74.6586 81.9394 74.8887 80.8504 74.3589 80.0369C73.8291 79.2234 72.7401 78.9932 71.9266 79.5231C59.348 87.7141 42.5021 85.943 31.8709 75.3118C19.3969 62.8378 19.3969 42.5413 31.8709 30.0671C44.3447 17.5933 64.6412 17.5933 77.1154 30.0671C87.7326 40.6845 89.5133 57.516 81.3493 70.0884C80.8206 70.9026 81.0521 71.9914 81.8661 72.52C82.6807 73.0488 83.7692 72.8173 84.2977 72.003C88.6596 65.2854 90.6232 57.1721 89.8265 49.1573ZM45.6773 7.78069C45.6773 6.42364 46.7812 5.31972 48.1383 5.31972H60.7947C62.1518 5.31972 63.2557 6.42364 63.2557 7.78069C63.2557 9.13775 62.1518 10.2417 60.7947 10.2417H60.4794H48.4534H48.1383C46.7812 10.2417 45.6773 9.13757 45.6773 7.78069ZM50.2113 17.4546V13.7574H58.7215V17.4483C55.8956 17.1122 53.0367 17.1143 50.2113 17.4546Z" fill="#40DD55"/>
<path d="M78.3592 74.7961C77.8951 74.7961 77.4434 74.9842 77.1166 75.3111C76.7879 75.6381 76.6014 76.0916 76.6014 76.5539C76.6014 77.0162 76.7879 77.4697 77.1166 77.7967C77.4434 78.1254 77.8953 78.3117 78.3592 78.3117C78.8215 78.3117 79.2733 78.1254 79.602 77.7967C79.9289 77.4697 80.117 77.0162 80.117 76.5539C80.117 76.0916 79.9291 75.6381 79.602 75.3111C79.2733 74.9842 78.8213 74.7961 78.3592 74.7961Z" fill="#40DD55"/>
<path d="M54.4933 25.4199C39.457 25.4199 27.2241 37.6527 27.2241 52.6891C27.2241 67.7255 39.457 79.9583 54.4933 79.9583C69.5295 79.9583 81.7624 67.7255 81.7624 52.6891C81.7624 37.6527 69.5295 25.4199 54.4933 25.4199ZM54.4933 76.4426C41.3954 76.4426 30.7397 65.7868 30.7397 52.6891C30.7397 39.5915 41.3954 28.9356 54.4933 28.9356C67.5911 28.9356 78.2468 39.5915 78.2468 52.6891C78.2468 65.7868 67.5911 76.4426 54.4933 76.4426Z" fill="#40DD55"/>
<path d="M65.6126 39.0838L56.906 47.7902C56.1779 47.4302 55.3589 47.2268 54.4932 47.2268C53.6273 47.2268 52.8085 47.4302 52.0804 47.7902L48.1838 43.8936C47.4972 43.2072 46.3845 43.2072 45.6977 43.8936C45.0113 44.58 45.0113 45.6931 45.6977 46.3795L49.5943 50.2761C49.2341 51.0042 49.0309 51.8232 49.0309 52.689C49.0309 55.7008 51.4812 58.1513 54.4932 58.1513C57.5053 58.1513 59.9555 55.7008 59.9555 52.689C59.9555 51.8232 59.7521 51.0042 59.3921 50.2761L67.8431 41.8252L68.0985 41.5697C68.785 40.8833 68.785 39.7702 68.0985 39.0838C67.4121 38.3974 66.2994 38.3974 65.6126 39.0838ZM54.4932 54.6358C53.4199 54.6358 52.5466 53.7625 52.5466 52.6891C52.5466 51.6158 53.4199 50.7425 54.4932 50.7425C55.5665 50.7425 56.4398 51.6158 56.4398 52.6891C56.4398 53.7625 55.5665 54.6358 54.4932 54.6358Z" fill="#40DD55"/>
<path d="M73.2878 50.9528H71.6592C70.6885 50.9528 69.9014 51.7397 69.9014 52.7106C69.9014 53.6814 70.6885 54.4684 71.6592 54.4684H73.2878C74.2585 54.4684 75.0456 53.6814 75.0456 52.7106C75.0456 51.7397 74.2585 50.9528 73.2878 50.9528Z" fill="#40DD55"/>
<path d="M37.327 50.9099H35.6985C34.7279 50.9099 33.9407 51.6969 33.9407 52.6677C33.9407 53.6385 34.7279 54.4255 35.6985 54.4255H37.327C38.2976 54.4255 39.0848 53.6385 39.0848 52.6677C39.0848 51.6969 38.2976 50.9099 37.327 50.9099Z" fill="#40DD55"/>
<path d="M54.5146 37.2807C55.4853 37.2807 56.2725 36.4937 56.2725 35.5229V33.8945C56.2725 32.9236 55.4853 32.1367 54.5146 32.1367C53.544 32.1367 52.7568 32.9236 52.7568 33.8945V35.5229C52.7568 36.4937 53.544 37.2807 54.5146 37.2807Z" fill="#40DD55"/>
<path d="M54.4718 68.0975C53.5011 68.0975 52.714 68.8844 52.714 69.8553V71.4837C52.714 72.4546 53.5011 73.2415 54.4718 73.2415C55.4425 73.2415 56.2296 72.4546 56.2296 71.4837V69.8553C56.2296 68.8844 55.4425 68.0975 54.4718 68.0975Z" fill="#40DD55"/>
<path d="M1.75781 61.7775C1.29551 61.7775 0.841992 61.9656 0.515039 62.2926C0.188086 62.6195 0 63.073 0 63.5353C0 63.9994 0.18791 64.4512 0.515039 64.7781C0.842168 65.1051 1.29551 65.2932 1.75781 65.2932C2.22012 65.2932 2.67363 65.1051 3.00041 64.7781C3.32736 64.4512 3.51562 63.9976 3.51562 63.5353C3.51562 63.073 3.32754 62.6195 3.00041 62.2926C2.67363 61.9656 2.22012 61.7775 1.75781 61.7775Z" fill="#40DD55"/>
</g>
<defs>
<clipPath id="clip0">
<rect width="90" height="90" fill="white"/>
</clipPath>
</defs>
</svg>
