<svg width="90" height="90" viewBox="0 0 90 90" fill="none" xmlns="http://www.w3.org/2000/svg">
<path d="M84.0057 22.5H61.5001V13.5H61.5087C64.8121 13.5 67.5 10.8084 67.5 7.50006C67.5 4.19168 64.8121 1.50012 61.5087 1.50012H26.9914C23.6878 1.50012 21.0001 4.19168 21.0001 7.50006C21.0001 10.8084 23.6879 13.5 26.9914 13.5H27V22.5H5.99432C2.6891 22.5 0 25.1942 0 28.5056V82.4947C0 85.806 2.6891 88.5002 5.99432 88.5002H84.0057C87.3109 88.5002 90 85.806 90 82.4948V28.5056C90 25.1942 87.3109 22.5 84.0057 22.5ZM26.9914 10.4999C25.342 10.4999 23.9999 9.15416 23.9999 7.49989C23.9999 5.84579 25.3419 4.49983 26.9914 4.49983H61.5087C63.158 4.49983 64.5001 5.84561 64.5001 7.49989C64.5001 9.15399 63.1582 10.4999 61.5087 10.4999H60.0001H28.5001H26.9914ZM58.5 13.5V22.5H30.0001V13.5H58.5ZM86.9999 82.4945C86.9999 84.1516 85.6566 85.5 84.0057 85.5H5.99432C4.3432 85.5 3.00006 84.1516 3.00006 82.4945V28.5056C3.00006 26.8485 4.34338 25.5001 5.99432 25.5001H28.4999H59.9999H84.0057C85.6568 25.5001 86.9999 26.8485 86.9999 28.5056V82.4945Z" fill="#C24D3E"/>
<path d="M7.50006 30.0001C6.67161 30.0001 6.00012 30.6717 6.00012 31.5V79.5234C6.00012 80.3519 6.67178 81.0234 7.50006 81.0234C8.32835 81.0234 9.00001 80.3517 9.00001 79.5234V31.5C9.00001 30.6717 8.32835 30.0001 7.50006 30.0001Z" fill="#C24D3E"/>
<path d="M30.0001 30.0001C29.1716 30.0001 28.5001 30.6717 28.5001 31.5V79.5234C28.5001 80.3519 29.1718 81.0234 30.0001 81.0234C30.8284 81.0234 31.5 80.3517 31.5 79.5234V31.5C31.5 30.6717 30.8284 30.0001 30.0001 30.0001Z" fill="#C24D3E"/>
<path d="M52.5001 30.0001C51.6716 30.0001 51.0001 30.6717 51.0001 31.5V79.5234C51.0001 80.3519 51.6718 81.0234 52.5001 81.0234C53.3284 81.0234 54 80.3517 54 79.5234V31.5C54 30.6717 53.3284 30.0001 52.5001 30.0001Z" fill="#C24D3E"/>
<path d="M75.0001 30.0001C74.1716 30.0001 73.5001 30.6717 73.5001 31.5V79.5234C73.5001 80.3519 74.1718 81.0234 75.0001 81.0234C75.8283 81.0234 76.5 80.3517 76.5 79.5234V31.5C76.5 30.6717 75.8283 30.0001 75.0001 30.0001Z" fill="#C24D3E"/>
<path d="M14.9999 30.0001C14.1715 30.0001 13.5 30.6717 13.5 31.5V79.5234C13.5 80.3519 14.1717 81.0234 14.9999 81.0234C15.8284 81.0234 16.4999 80.3517 16.4999 79.5234V31.5C16.5001 30.6717 15.8284 30.0001 14.9999 30.0001Z" fill="#C24D3E"/>
<path d="M37.4999 30.0001C36.6715 30.0001 36 30.6717 36 31.5V79.5234C36 80.3519 36.6717 81.0234 37.4999 81.0234C38.3284 81.0234 38.9999 80.3517 38.9999 79.5234V31.5C39.0001 30.6717 38.3284 30.0001 37.4999 30.0001Z" fill="#C24D3E"/>
<path d="M60 30.0001C59.1715 30.0001 58.5 30.6717 58.5 31.5V79.5234C58.5 80.3519 59.1717 81.0234 60 81.0234C60.8284 81.0234 61.4999 80.3517 61.4999 79.5234V31.5C61.5001 30.6717 60.8284 30.0001 60 30.0001Z" fill="#C24D3E"/>
<path d="M82.4999 30.0001C81.6715 30.0001 81 30.6717 81 31.5V79.5234C81 80.3519 81.6717 81.0234 82.4999 81.0234C83.3282 81.0234 83.9999 80.3517 83.9999 79.5234V31.5C84.0001 30.6717 83.3284 30.0001 82.4999 30.0001Z" fill="#C24D3E"/>
<path d="M22.5 30.0001C21.6715 30.0001 21.0001 30.6717 21.0001 31.5V79.5234C21.0001 80.3519 21.6717 81.0234 22.5 81.0234C23.3283 81.0234 24 80.3517 24 79.5234V31.5C24 30.6717 23.3285 30.0001 22.5 30.0001Z" fill="#C24D3E"/>
<path d="M45 30.0001C44.1715 30.0001 43.5001 30.6717 43.5001 31.5V79.5234C43.5001 80.3519 44.1717 81.0234 45 81.0234C45.8283 81.0234 46.4999 80.3517 46.4999 79.5234V31.5C46.4999 30.6717 45.8285 30.0001 45 30.0001Z" fill="#C24D3E"/>
<path d="M67.5 30.0001C66.6715 30.0001 66.0001 30.6717 66.0001 31.5V79.5234C66.0001 80.3519 66.6717 81.0234 67.5 81.0234C68.3283 81.0234 68.9999 80.3517 68.9999 79.5234V31.5C68.9999 30.6717 68.3284 30.0001 67.5 30.0001Z" fill="#C24D3E"/>
</svg>
