<svg width="155" height="45" viewBox="0 0 155 45" fill="none" xmlns="http://www.w3.org/2000/svg">
<path d="M132.5 45C144.926 45 155 34.9264 155 22.5C155 10.0736 144.926 0 132.5 0C120.074 0 110 10.0736 110 22.5C110 34.9264 120.074 45 132.5 45Z" fill="#3C80AD"/>
<path d="M125.144 11.5796C119.467 11.6155 114.87 16.2447 114.87 21.9426C114.87 27.6629 119.502 32.3049 125.211 32.3049C127.888 32.3049 130.331 31.282 132.168 29.6048L132.168 29.6045H132.169C132.546 29.2609 132.897 28.8893 133.219 28.4946H131.101C130.818 28.1525 130.561 27.795 130.33 27.4266H133.983C134.206 27.0707 134.407 26.7008 134.586 26.3178H129.728C129.562 25.9619 129.418 25.5991 129.295 25.2292H135.019C135.364 24.1961 135.551 23.0905 135.551 21.9426C135.551 21.1801 135.468 20.4383 135.313 19.7228H128.991C129.07 19.3544 129.169 18.9909 129.286 18.6346H135.012C134.884 18.2544 134.735 17.8846 134.566 17.525H129.727C129.901 17.1509 130.099 16.7882 130.32 16.4364H133.971C133.728 16.0481 133.459 15.6772 133.169 15.3276H131.133C131.448 14.9556 131.794 14.6057 132.17 14.2814C130.333 12.6034 127.89 11.5799 125.211 11.5799C125.188 11.5796 125.166 11.5796 125.144 11.5796Z" fill="#931B1D"/>
<path d="M149.422 21.9458C149.423 27.6683 144.796 32.3085 139.083 32.3102C133.373 32.312 128.743 27.6735 128.741 21.9501V21.9458C128.739 16.2216 133.368 11.581 139.079 11.5796C144.789 11.5775 149.42 16.2163 149.422 21.9401C149.422 21.9401 149.422 21.9427 149.422 21.9458Z" fill="#F16622"/>
<path d="M149.422 22.0599C149.423 27.7826 144.796 32.4236 139.083 32.4247C133.373 32.4268 128.743 27.7877 128.741 22.0652V22.0599C128.739 16.3368 133.368 11.6958 139.079 11.6943C144.789 11.6922 149.42 16.3311 149.422 22.0545C149.422 22.0546 149.422 22.0578 149.422 22.0599Z" fill="#F7981D"/>
<path d="M125.144 11.6974C119.467 11.7339 114.87 16.3621 114.87 22.0604C114.87 27.781 119.502 32.4233 125.211 32.4233C127.888 32.4233 130.331 31.3998 132.168 29.7229L132.168 29.7219H132.169C132.546 29.3786 132.897 29.0081 133.219 28.612H131.101C130.818 28.2706 130.561 27.9138 130.33 27.5454H133.983C134.206 27.1891 134.407 26.8182 134.586 26.4356H129.728C129.562 26.0792 129.418 25.7165 129.295 25.3474H135.019C135.364 24.3135 135.551 23.2083 135.551 22.0604C135.551 21.2983 135.468 20.5561 135.313 19.8409H128.991C129.07 19.4729 129.169 19.1087 129.286 18.7527H135.012C134.884 18.3723 134.735 18.0023 134.566 17.6425H129.727C129.901 17.2698 130.099 16.9057 130.32 16.5543H133.971C133.728 16.1663 133.459 15.7957 133.169 15.4447H131.133C131.448 15.0735 131.794 14.7235 132.17 14.3985C130.333 12.7208 127.89 11.6973 125.211 11.6973C125.188 11.6974 125.166 11.6974 125.144 11.6974Z" fill="#CB2026"/>
<path d="M128.929 24.6985L129.067 23.7609C128.992 23.7609 128.881 23.7929 128.783 23.7929C128.4 23.7929 128.357 23.5889 128.382 23.438L128.692 21.5241H129.274L129.415 20.4863H128.866L128.978 19.8418H127.876C127.853 19.8659 127.226 23.4703 127.226 23.9083C127.226 24.5581 127.59 24.8476 128.103 24.8433C128.505 24.8396 128.819 24.7284 128.929 24.6985Z" fill="white"/>
<path d="M129.278 22.9104C129.278 24.4697 130.304 24.8406 131.179 24.8406C131.987 24.8406 132.342 24.6591 132.342 24.6591L132.537 23.5947C132.537 23.5947 131.922 23.8676 131.367 23.8676C130.185 23.8676 130.392 22.9837 130.392 22.9837H132.63C132.63 22.9837 132.774 22.2682 132.774 21.9769C132.774 21.2503 132.413 20.3643 131.204 20.3643C130.097 20.3645 129.278 21.5593 129.278 22.9104ZM131.209 21.3518C131.83 21.3518 131.715 22.0517 131.715 22.1082H130.493C130.493 22.0361 130.608 21.3518 131.209 21.3518Z" fill="white"/>
<path d="M138.18 24.6984L138.377 23.4944C138.377 23.4944 137.837 23.7673 137.466 23.7673C136.685 23.7673 136.372 23.1683 136.372 22.5273C136.372 21.2242 137.044 20.5072 137.793 20.5072C138.354 20.5072 138.804 20.8234 138.804 20.8234L138.983 19.6552C138.983 19.6552 138.316 19.3838 137.744 19.3838C136.473 19.3838 135.236 20.4877 135.236 22.5646C135.236 23.9395 135.904 24.8493 137.218 24.8493C137.589 24.8495 138.18 24.6984 138.18 24.6984Z" fill="white"/>
<path d="M122.873 20.3813C122.118 20.3813 121.54 20.624 121.54 20.624L121.38 21.5748C121.38 21.5748 121.858 21.3808 122.58 21.3808C122.99 21.3808 123.289 21.4266 123.289 21.7609C123.289 21.9635 123.253 22.0384 123.253 22.0384C123.253 22.0384 122.93 22.011 122.78 22.011C121.828 22.011 120.828 22.4182 120.828 23.6467C120.828 24.6138 121.484 24.8361 121.89 24.8361C122.667 24.8361 123.001 24.3313 123.02 24.3291L122.984 24.7512H123.953L124.385 21.7118C124.385 20.4228 123.263 20.3813 122.873 20.3813ZM123.11 22.8548C123.131 23.0406 122.993 23.911 122.33 23.911C121.988 23.911 121.899 23.6488 121.899 23.4939C121.899 23.1922 122.063 22.8295 122.87 22.8295C123.057 22.8295 123.078 22.8501 123.11 22.8548Z" fill="white"/>
<path d="M125.416 24.8128C125.664 24.8128 127.081 24.8764 127.081 23.4105C127.081 22.0398 125.769 22.3102 125.769 21.7595C125.769 21.4864 125.983 21.3989 126.374 21.3989C126.529 21.3989 127.126 21.449 127.126 21.449L127.266 20.4742C127.266 20.4742 126.879 20.3882 126.25 20.3882C125.435 20.3882 124.609 20.7129 124.609 21.8281C124.609 23.0925 125.987 22.9646 125.987 23.4968C125.987 23.8521 125.602 23.8813 125.305 23.8813C124.792 23.8813 124.33 23.7047 124.327 23.7128L124.181 24.6766C124.206 24.6857 124.492 24.8128 125.416 24.8128Z" fill="white"/>
<path d="M147.3 19.5068L147.063 20.9833C147.063 20.9833 146.648 20.4103 146 20.4103C144.99 20.4103 144.15 21.6289 144.15 23.0297C144.15 23.9339 144.598 24.819 145.515 24.819C146.175 24.819 146.54 24.3582 146.54 24.3582L146.492 24.7515H147.563L148.404 19.5044L147.3 19.5068ZM146.789 22.387C146.789 22.9694 146.5 23.747 145.904 23.747C145.507 23.747 145.322 23.4137 145.322 22.8907C145.322 22.0359 145.705 21.4703 146.188 21.4703C146.585 21.4704 146.789 21.744 146.789 22.387Z" fill="white"/>
<path d="M116.912 24.7562L117.583 20.7948L117.68 24.7562H118.439L119.854 20.7948L119.227 24.7562H120.354L121.223 19.5034H119.479L118.394 22.7258L118.338 19.5034H116.731L115.851 24.7562H116.912Z" fill="white"/>
<path d="M133.875 24.7633C134.196 22.9375 134.255 21.4542 135.02 21.7246C135.154 21.0183 135.283 20.7451 135.429 20.4457C135.429 20.4457 135.361 20.4312 135.216 20.4312C134.724 20.4312 134.359 21.1061 134.359 21.1061L134.456 20.4865H133.431L132.745 24.7633H133.875Z" fill="white"/>
<path d="M140.72 20.3813C139.965 20.3813 139.387 20.624 139.387 20.624L139.228 21.5748C139.228 21.5748 139.705 21.3808 140.427 21.3808C140.837 21.3808 141.137 21.4266 141.137 21.7609C141.137 21.9635 141.1 22.0384 141.1 22.0384C141.1 22.0384 140.777 22.011 140.626 22.011C139.674 22.011 138.675 22.4182 138.675 23.6467C138.675 24.6138 139.331 24.8361 139.737 24.8361C140.514 24.8361 140.849 24.3313 140.866 24.3291L140.83 24.7512H141.8L142.233 21.7118C142.233 20.4228 141.111 20.3813 140.72 20.3813ZM140.957 22.8548C140.978 23.0406 140.841 23.911 140.177 23.911C139.836 23.911 139.747 23.6488 139.747 23.4939C139.747 23.1922 139.911 22.8295 140.717 22.8295C140.905 22.8295 140.925 22.8501 140.957 22.8548Z" fill="white"/>
<path d="M143.118 24.7633C143.439 22.9375 143.498 21.4542 144.263 21.7246C144.397 21.0183 144.526 20.7451 144.673 20.4457C144.673 20.4457 144.603 20.4312 144.46 20.4312C143.966 20.4312 143.602 21.1061 143.602 21.1061L143.7 20.4865H142.674L141.988 24.763H143.118L143.118 24.7633Z" fill="white"/>
<path d="M77.5 45C89.9264 45 100 34.9264 100 22.5C100 10.0736 89.9264 0 77.5 0C65.0736 0 55 10.0736 55 22.5C55 34.9264 65.0736 45 77.5 45Z" fill="#003473"/>
<path d="M76.911 29.2709C78.8679 27.5045 80.1028 24.9398 80.1028 22.0911C80.1028 19.2418 78.8676 16.6785 76.911 14.8925C75.2011 13.3353 72.923 12.3853 70.4155 12.3853C65.06 12.3853 60.7093 16.7352 60.7093 22.0907C60.7093 27.4476 65.06 31.7778 70.4155 31.7778C72.9231 31.7782 75.2011 30.8289 76.911 29.2709Z" fill="#009DDD"/>
<path d="M76.911 29.271C78.8679 27.5046 80.1028 24.9399 80.1028 22.0912C80.1028 19.2419 78.8675 16.6786 76.911 14.8926V29.271Z" fill="#009DDD"/>
<path d="M83.4268 12.3857C80.9189 12.3857 78.6394 13.3358 76.9111 14.893C76.5696 15.2156 76.2471 15.5577 75.9422 15.9194H77.8983C78.1648 16.2412 78.4117 16.6029 78.6394 16.9443H75.201C74.9928 17.2864 74.8027 17.6289 74.6312 17.9701H79.1901C79.3429 18.3115 79.4939 18.6546 79.6079 18.9961H74.234C74.1196 19.3379 74.0243 19.6807 73.9487 20.0406H79.8932C80.0258 20.6865 80.1029 21.3896 80.1029 22.0916C80.1029 23.1553 79.9309 24.2005 79.608 25.169H74.2341C74.3471 25.5104 74.4803 25.8529 74.6316 26.1947H79.1906C79.0201 26.5368 78.8485 26.8974 78.6395 27.2204H75.2011C75.4302 27.5814 75.6765 27.9232 75.9422 28.2462H77.8983C77.595 28.6072 77.2716 28.9493 76.9111 29.2719C78.6395 30.8298 80.9189 31.7791 83.4268 31.7791C88.783 31.7791 93.1139 27.449 93.1139 22.0921C93.1134 16.7358 88.783 12.3857 83.4268 12.3857Z" fill="#ED1C2E"/>
<path d="M89.7696 24.1807C89.7696 24.0094 89.9224 23.877 90.0929 23.877C90.2642 23.877 90.3966 24.0095 90.3966 24.1807C90.3966 24.3523 90.2641 24.504 90.0929 24.504C89.9224 24.504 89.7696 24.3523 89.7696 24.1807ZM90.0929 24.4279C90.2254 24.4279 90.3206 24.3139 90.3206 24.1807C90.3206 24.0479 90.2253 23.9526 90.0929 23.9526C89.9597 23.9526 89.8467 24.0479 89.8467 24.1807C89.8467 24.3139 89.9597 24.4279 90.0929 24.4279ZM90.0548 24.3139H89.9791V24.0478H90.0928C90.1301 24.0478 90.1497 24.0478 90.1691 24.0669C90.1879 24.0857 90.2065 24.1043 90.2065 24.1238C90.2065 24.1622 90.1877 24.2002 90.1496 24.2002L90.2065 24.3138H90.1301L90.0928 24.2186H90.0548V24.3139ZM90.0548 24.1622H90.0928C90.0928 24.1622 90.1116 24.1622 90.1301 24.1622C90.1301 24.1622 90.1301 24.1426 90.1301 24.1238V24.1043C90.1113 24.1043 90.0928 24.1043 90.074 24.1043H90.0544V24.1622H90.0548Z" fill="white"/>
<path d="M69.1997 24.5042H67.9847L68.7062 20.7243L67.0542 24.5042H65.9514L65.762 20.7431L65.0405 24.5042H63.9384L64.8696 19.585H66.7682L66.863 22.6233L68.1943 19.585H70.1486L69.1997 24.5042Z" fill="white"/>
<path d="M82.6856 24.4478C82.3435 24.542 82.0966 24.5799 81.8113 24.5799C81.2041 24.5799 80.8612 24.2762 80.8612 23.707C80.8612 23.5926 80.8808 23.4782 80.8992 23.3453L80.9749 22.9463L81.0332 22.643L81.5835 19.5854H82.7797L82.6096 20.4964H83.2356L83.0651 21.4659H82.4384L82.1347 23.1368C82.1151 23.2129 82.0967 23.27 82.0967 23.3077C82.0967 23.517 82.2299 23.6111 82.5152 23.6111C82.6478 23.6111 82.7608 23.5923 82.8379 23.5734L82.6856 24.4478Z" fill="white"/>
<path d="M86.1994 20.5349C86.1042 20.4962 86.0858 20.4962 86.0669 20.4962C86.0093 20.4766 85.9716 20.4766 85.9716 20.4585C85.9329 20.4585 85.8953 20.4585 85.8391 20.4585C85.4394 20.4585 85.1548 20.6294 84.7935 21.1037L84.9072 20.4962H83.8051L83.0647 24.5041H84.2804C84.7171 22.053 84.8883 21.6167 85.4767 21.6167C85.5147 21.6167 85.5726 21.6359 85.6288 21.6359L85.762 21.6736L86.1994 20.5349Z" fill="white"/>
<path d="M77.8984 21.7686C77.8984 22.2628 78.1837 22.6234 78.8295 22.8711C79.3238 23.0793 79.3998 23.1368 79.3998 23.3269C79.3998 23.5735 79.1714 23.6879 78.6967 23.6879C78.3357 23.6879 77.9932 23.6308 77.5946 23.5174L77.4426 24.4482H77.5002L77.7084 24.5047C77.7841 24.5047 77.8977 24.5238 78.031 24.5238C78.3163 24.5612 78.5444 24.5612 78.7153 24.5612C79.9879 24.5612 80.5958 24.1434 80.5958 23.2321C80.5958 22.681 80.3488 22.3584 79.7222 22.1115C79.2088 21.9214 79.1523 21.8645 79.1523 21.6745C79.1523 21.4663 79.3612 21.3519 79.7601 21.3519C79.9878 21.3519 80.3293 21.3714 80.6331 21.4084L80.8044 20.4971C80.4817 20.4409 80.0071 20.4214 79.7407 20.4214C78.3737 20.4207 77.8984 21.0282 77.8984 21.7686Z" fill="white"/>
<path d="M73.1124 24.5045H72.1243L72.1439 24.0859C71.8402 24.4092 71.4223 24.5609 70.8713 24.5609C70.2261 24.5609 69.7699 24.1243 69.7699 23.4784C69.7699 22.5092 70.5476 21.9397 71.8973 21.9397C72.0291 21.9397 72.2007 21.9397 72.3908 21.9593C72.4287 21.8264 72.4287 21.7688 72.4287 21.7123C72.4287 21.4465 72.2191 21.3513 71.6496 21.3513C71.3075 21.3513 70.9287 21.3893 70.6623 21.4465L70.4918 21.5037L70.3774 21.5222L70.5479 20.6298C71.1565 20.477 71.5359 20.4209 71.9925 20.4209C73.0362 20.4209 73.5685 20.8192 73.5685 21.5787C73.5685 21.788 73.5497 21.94 73.474 22.377L73.2271 23.8017L73.1891 24.0483L73.1504 24.258L73.1316 24.3901L73.1124 24.5045ZM72.2388 22.7185C72.1048 22.6997 72.0487 22.6997 71.973 22.6997C71.2887 22.6997 70.9473 22.9086 70.9473 23.3079C70.9473 23.5545 71.0986 23.7257 71.3644 23.7257C71.8593 23.7257 72.2196 23.3079 72.2388 22.7185Z" fill="white"/>
<path d="M77.0814 24.4091C76.6643 24.5232 76.2654 24.5797 75.8468 24.5797C74.5 24.5797 73.7958 23.9526 73.7958 22.7752C73.7958 21.4073 74.689 20.4009 75.9047 20.4009C76.892 20.4009 77.5202 20.9708 77.5202 21.8444C77.5202 22.1477 77.4815 22.4341 77.387 22.8324H74.9736C74.9736 22.9081 74.9736 22.9269 74.9736 22.9656C74.9736 23.4215 75.3157 23.6681 76.0185 23.6681C76.4554 23.6681 76.8541 23.5924 77.2715 23.4219L77.0814 24.4091ZM76.4363 22.0355C76.4363 21.9592 76.4363 21.8827 76.4363 21.8263C76.4363 21.5036 76.2266 21.3129 75.8664 21.3129C75.4862 21.3129 75.2205 21.5786 75.1058 22.0355H76.4363Z" fill="white"/>
<path d="M89.9597 22.6802C89.7696 24.0089 88.8391 24.598 87.6038 24.598C86.2562 24.598 85.7059 23.7819 85.7059 22.7563C85.7059 21.3505 86.6356 20.3809 88.0791 20.3809C89.3329 20.3809 89.9977 21.1788 89.9977 22.1856C89.998 22.434 89.998 22.4525 89.9597 22.6802ZM88.7065 22.1668C88.7065 21.7491 88.5353 21.3703 88.0426 21.3703C87.4333 21.3703 87.0539 22.0912 87.0539 22.7374C87.0539 23.2696 87.3203 23.6302 87.7382 23.6302C88.0039 23.6302 88.5738 23.2696 88.6687 22.6617C88.7065 22.509 88.7065 22.3388 88.7065 22.1668Z" fill="white"/>
<g clip-path="url(#clip0)">
<path d="M22.5003 45.0005C34.9262 45.0005 44.9994 34.9274 44.9994 22.5015C44.9994 10.0756 34.9262 0.00244141 22.5003 0.00244141C10.0745 0.00244141 0.00128174 10.0756 0.00128174 22.5015C0.00128174 34.9274 10.0745 45.0005 22.5003 45.0005Z" fill="#F3F2F2"/>
<path d="M16.6613 26.817L18.3829 16.6509H21.1702L19.4486 26.817H16.6613Z" fill="#293688"/>
<path d="M29.3713 16.9135C28.819 16.7075 27.9535 16.4868 26.8728 16.4868C24.1181 16.4868 22.1777 17.866 22.161 19.8419C22.1457 21.3023 23.5461 22.1169 24.6041 22.6036C25.689 23.101 26.0539 23.4201 26.0486 23.8645C26.0418 24.5459 25.1817 24.8574 24.3803 24.8574C23.2648 24.857 22.6719 24.7032 21.7563 24.3238L21.3971 24.1619L21.0057 26.4377C21.6569 26.7216 22.8612 26.9678 24.1113 26.9802C27.0411 26.9795 28.9439 25.6175 28.9653 23.5068C28.9759 22.3505 28.2331 21.4705 26.6248 20.7447C25.6503 20.275 25.0535 19.9613 25.0599 19.4846C25.0599 19.0622 25.5654 18.6103 26.6564 18.6103C27.568 18.5961 28.2284 18.7937 28.7432 18.9997L28.9926 19.117L29.3713 16.9135Z" fill="#293688"/>
<path d="M34.1236 16.6509C33.4558 16.6509 32.9733 16.8548 32.6798 17.5167L28.5488 26.8174H31.5L32.0737 25.2595H35.5997L35.9273 26.8174H38.5509L36.2556 16.6512H34.1237L34.1236 16.6509ZM32.8568 23.2253C33.087 22.6399 33.9669 20.3839 33.9669 20.3839C33.951 20.4106 34.196 19.7956 34.3368 19.4141L34.5254 20.2901C34.5254 20.2901 35.0586 22.7169 35.1706 23.2256H32.8568V23.2253Z" fill="#293688"/>
<path d="M11.5782 23.6196L11.3326 22.2259C10.8239 20.6013 9.24509 18.8435 7.47589 17.9628L9.93857 26.817H12.8904L17.3173 16.6509H14.3661L11.5782 23.6196Z" fill="#293688"/>
<path d="M4.44556 16.6509V16.815C7.94313 17.6562 10.3713 19.7829 11.3327 22.226L10.322 17.5185C10.1533 16.8751 9.64197 16.6733 9.03699 16.651L4.44556 16.6509Z" fill="#F7981D"/>
<path d="M22.4984 44.9999C31.1825 44.9999 38.7122 40.0774 42.4627 32.873H2.53461C6.2854 40.0774 13.8148 44.9999 22.4984 44.9999Z" fill="#F7981D"/>
<path d="M22.4984 0C13.9523 0 6.51916 4.76471 2.71045 11.7829H42.2872C38.478 4.76509 31.0446 0 22.4984 0Z" fill="#293688"/>
</g>
<defs>
<clipPath id="clip0">
<rect width="45" height="45" fill="white"/>
</clipPath>
</defs>
</svg>
