<svg width="90" height="90" viewBox="0 0 90 90" fill="none" xmlns="http://www.w3.org/2000/svg">
<path d="M84.7266 51.3721V8.08594C84.7266 6.62956 83.5462 5.44922 82.0898 5.44922H68.7305V2.63672C68.7305 1.18034 67.5501 0 66.0938 0C64.6374 0 63.457 1.18034 63.457 2.63672V5.44922H52.9102V2.63672C52.9102 1.18034 51.7298 0 50.2734 0C48.8171 0 47.6367 1.18034 47.6367 2.63672V5.44922H37.0898V2.63672C37.0898 1.18034 35.9095 0 34.4531 0C32.9967 0 31.8164 1.18034 31.8164 2.63672V5.44922H21.2695V2.63672C21.2695 1.18034 20.0892 0 18.6328 0C17.1764 0 15.9961 1.18034 15.9961 2.63672V5.44922H2.63672C1.18034 5.44922 0 6.62956 0 8.08594V76.8164C0 78.2728 1.18034 79.4531 2.63672 79.4531H46.5477C50.8104 85.808 58.0593 90 66.2695 90C79.3542 90 90 79.3542 90 66.2695C90 60.6322 88.0225 55.448 84.7266 51.3721ZM15.9961 10.7227V13.3594C15.9961 14.8158 17.1764 15.9961 18.6328 15.9961C20.0892 15.9961 21.2695 14.8158 21.2695 13.3594V10.7227H31.8164V13.3594C31.8164 14.8158 32.9967 15.9961 34.4531 15.9961C35.9095 15.9961 37.0898 14.8158 37.0898 13.3594V10.7227H47.6367V13.3594C47.6367 14.8158 48.8171 15.9961 50.2734 15.9961C51.7298 15.9961 52.9102 14.8158 52.9102 13.3594V10.7227H63.457V13.3594C63.457 14.8158 64.6374 15.9961 66.0938 15.9961C67.5501 15.9961 68.7305 14.8158 68.7305 13.3594V10.7227H79.4531V21.2695H5.27344V10.7227H15.9961ZM5.27344 74.1797V26.543H79.4531V46.5477C75.68 44.0174 71.144 42.5391 66.2695 42.5391C57.9378 42.5391 50.5962 46.856 46.3609 53.3695C46.0046 53.1896 45.6029 53.0859 45.1758 53.0859H39.9023C38.446 53.0859 37.2656 54.2663 37.2656 55.7227C37.2656 57.179 38.446 58.3594 39.9023 58.3594H43.8966C43.3012 60.0389 42.8893 61.805 42.6867 63.6328H39.9023C38.446 63.6328 37.2656 64.8132 37.2656 66.2695C37.2656 67.7259 38.446 68.9062 39.9023 68.9062H42.6867C42.8893 70.7341 43.3006 72.5002 43.8966 74.1797H5.27344ZM66.2695 84.7266C56.0921 84.7266 47.8125 76.447 47.8125 66.2695C47.8125 56.0921 56.0921 47.8125 66.2695 47.8125C76.447 47.8125 84.7266 56.0921 84.7266 66.2695C84.7266 76.447 76.447 84.7266 66.2695 84.7266Z" fill="#40DD55"/>
<path d="M76.8164 63.6328H68.9062V55.7227C68.9062 54.2663 67.7259 53.0859 66.2695 53.0859C64.8132 53.0859 63.6328 54.2663 63.6328 55.7227V66.2695C63.6328 67.7259 64.8132 68.9062 66.2695 68.9062H76.8164C78.2728 68.9062 79.4531 67.7259 79.4531 66.2695C79.4531 64.8132 78.2728 63.6328 76.8164 63.6328Z" fill="#40DD55"/>
<path d="M23.9062 31.9922H18.6328C17.1764 31.9922 15.9961 33.1725 15.9961 34.6289C15.9961 36.0853 17.1764 37.2656 18.6328 37.2656H23.9062C25.3626 37.2656 26.543 36.0853 26.543 34.6289C26.543 33.1725 25.3626 31.9922 23.9062 31.9922Z" fill="#40DD55"/>
<path d="M23.9062 42.5391H18.6328C17.1764 42.5391 15.9961 43.7194 15.9961 45.1758C15.9961 46.6322 17.1764 47.8125 18.6328 47.8125H23.9062C25.3626 47.8125 26.543 46.6322 26.543 45.1758C26.543 43.7194 25.3626 42.5391 23.9062 42.5391Z" fill="#40DD55"/>
<path d="M23.9062 53.0859H18.6328C17.1764 53.0859 15.9961 54.2663 15.9961 55.7227C15.9961 57.179 17.1764 58.3594 18.6328 58.3594H23.9062C25.3626 58.3594 26.543 57.179 26.543 55.7227C26.543 54.2663 25.3626 53.0859 23.9062 53.0859Z" fill="#40DD55"/>
<path d="M39.9023 37.2656H45.1758C46.6322 37.2656 47.8125 36.0853 47.8125 34.6289C47.8125 33.1725 46.6322 31.9922 45.1758 31.9922H39.9023C38.446 31.9922 37.2656 33.1725 37.2656 34.6289C37.2656 36.0853 38.446 37.2656 39.9023 37.2656Z" fill="#40DD55"/>
<path d="M39.9023 47.8125H45.1758C46.6322 47.8125 47.8125 46.6322 47.8125 45.1758C47.8125 43.7194 46.6322 42.5391 45.1758 42.5391H39.9023C38.446 42.5391 37.2656 43.7194 37.2656 45.1758C37.2656 46.6322 38.446 47.8125 39.9023 47.8125Z" fill="#40DD55"/>
<path d="M23.9062 63.6328H18.6328C17.1764 63.6328 15.9961 64.8132 15.9961 66.2695C15.9961 67.7259 17.1764 68.9062 18.6328 68.9062H23.9062C25.3626 68.9062 26.543 67.7259 26.543 66.2695C26.543 64.8132 25.3626 63.6328 23.9062 63.6328Z" fill="#40DD55"/>
<path d="M60.9961 37.2656H66.2695C67.7259 37.2656 68.9062 36.0853 68.9062 34.6289C68.9062 33.1725 67.7259 31.9922 66.2695 31.9922H60.9961C59.5397 31.9922 58.3594 33.1725 58.3594 34.6289C58.3594 36.0853 59.5397 37.2656 60.9961 37.2656Z" fill="#40DD55"/>
</svg>
