<svg width="90" height="90" viewBox="0 0 90 90" fill="none" xmlns="http://www.w3.org/2000/svg">
<path d="M61.5604 38.4961H51.5918V25.9051C54.0893 24.5426 56.1651 22.4227 57.4376 19.7819C57.7536 19.1261 57.478 18.338 56.8222 18.022C56.1667 17.7061 55.3785 17.9814 55.0621 18.6372C53.2111 22.4787 49.2615 24.9609 45 24.9609C38.8452 24.9609 33.8379 19.9536 33.8379 13.7988C33.8379 12.9356 33.9397 12.096 34.126 11.2885C34.206 11.5673 34.2995 11.8443 34.4106 12.118C36.3477 16.8826 40.504 19.9614 44.9998 19.9614C49.574 19.9614 53.7613 16.8061 55.6671 11.9227C55.7466 11.7192 55.8162 11.5135 55.878 11.3066C56.0617 12.1087 56.1621 12.9421 56.1621 13.799C56.1621 14.5271 56.7522 15.1174 57.4805 15.1174C58.2087 15.1174 58.7988 14.5271 58.7988 13.799C58.7988 9.20584 56.5409 5.13229 53.0789 2.62266C50.5092 0.80543 47.7946 0 45 0C42.2889 0 39.4696 0.80543 37.0855 2.50559C33.5308 5.00414 31.2012 9.13342 31.2012 13.7988C31.2012 19.0216 34.1181 23.5756 38.4082 25.9184V29.5087C38.4082 30.2368 38.9983 30.8271 39.7266 30.8271C40.4548 30.8271 41.0449 30.2368 41.0449 29.5087V27.0174C42.2986 27.3932 43.6256 27.5978 45 27.5978C46.3567 27.5978 47.6873 27.3929 48.9551 27.0097V48.3715C48.9551 49.427 48.5434 50.4202 47.796 51.1676C47.0487 51.9149 46.0557 52.3266 45 52.3266C42.8193 52.3266 41.0449 50.5524 41.0449 48.3715V35.1336C41.0449 34.4055 40.4548 33.8152 39.7266 33.8152C38.9983 33.8152 38.4082 34.4055 38.4082 35.1336V38.4961H28.4396C20.7543 38.4961 14.502 44.7485 14.502 52.4338V76.0623C14.502 83.7476 20.7543 90 28.4396 90H61.5604C69.2457 90 75.498 83.7476 75.498 76.0623V52.4338C75.498 44.7485 69.2457 38.4961 61.5604 38.4961V38.4961ZM51.4905 4.72641C53.3568 6.16342 54.0821 8.73105 53.2109 10.964C51.7029 14.8279 48.4799 17.3245 45 17.3245C41.5296 17.3245 38.4079 14.949 36.8534 11.125C35.8979 8.77465 36.6639 6.08871 38.6701 4.61197C40.4703 3.36779 42.6509 2.63672 45 2.63672C47.4196 2.63672 49.6601 3.41314 51.4905 4.72641V4.72641ZM59.1398 44.3391C60.8903 44.3391 62.3145 45.7639 62.3145 47.5154V67.8551C62.3145 69.6066 60.8903 71.0314 59.1398 71.0314H30.8602C29.1097 71.0314 27.6855 69.6066 27.6855 67.8551V47.5154C27.6855 45.7639 29.1097 44.3391 30.8602 44.3391H31.9678V58.4613C31.9678 61.307 34.283 63.6223 37.1285 63.6223H52.8717C55.7172 63.6223 58.0324 61.307 58.0324 58.4613V44.3391H59.1398ZM38.4082 41.1328V48.3715C38.4082 52.0063 41.3652 54.9633 45 54.9633C46.7601 54.9633 48.4153 54.2774 49.6607 53.032C50.9061 51.7866 51.5918 50.1314 51.5918 48.3715V41.1328H52.8715C54.2633 41.1328 55.3955 42.2652 55.3955 43.657V58.4613C55.3955 59.8532 54.2633 60.9855 52.8715 60.9855H37.1285C35.7367 60.9855 34.6045 59.8532 34.6045 58.4613V43.657C34.6045 42.2652 35.7367 41.1328 37.1285 41.1328H38.4082ZM72.8613 76.0623C72.8613 82.2937 67.7916 87.3633 61.5604 87.3633H28.4396C22.2084 87.3633 17.1387 82.2937 17.1387 76.0623V52.4338C17.1387 46.2023 22.2084 41.1328 28.4396 41.1328H32.6296C32.5264 41.3162 32.4338 41.5062 32.3532 41.7023H30.8602C28.944 41.7023 27.2421 42.6352 26.183 44.0705C22.4387 45.0798 19.7756 48.5093 19.7756 52.4338V76.0623C19.7756 80.8399 23.6623 84.7266 28.4398 84.7266H50.8008C51.529 84.7266 52.1191 84.1363 52.1191 83.4082C52.1191 82.6801 51.529 82.0898 50.8008 82.0898H28.4396C25.1162 82.0898 22.4121 79.386 22.4121 76.0623V52.4338C22.4121 50.3958 23.4443 48.5497 25.0504 47.4523C25.0502 47.4734 25.0488 47.4943 25.0488 47.5154V67.8551C25.0488 71.0604 27.6557 73.6682 30.8602 73.6682H59.1398C62.3442 73.6682 64.9512 71.0604 64.9512 67.8551V47.5154C64.9512 47.4943 64.9498 47.4734 64.9496 47.4523C66.5557 48.5499 67.5879 50.396 67.5879 52.4338V76.0623C67.5879 79.386 64.8838 82.0898 61.5604 82.0898H56.3407C55.6124 82.0898 55.0223 82.6801 55.0223 83.4082C55.0223 84.1363 55.6124 84.7266 56.3407 84.7266H61.5604C66.3379 84.7266 70.2246 80.8399 70.2246 76.0623V52.4338C70.2246 48.5093 67.5615 45.0796 63.8172 44.0705C62.758 42.6354 61.0562 41.7023 59.14 41.7023H57.6469C57.5664 41.5062 57.4738 41.3162 57.3706 41.1328H61.5605C67.7918 41.1328 72.8615 46.2023 72.8615 52.4338V76.0623H72.8613Z" fill="#C24D3E"/>
<path d="M40.6055 12.3571C41.3337 12.3571 41.9238 11.7668 41.9238 11.0387V10.4412H43.6816V11.0387C43.6816 11.7668 44.2717 12.3571 45 12.3571C45.7283 12.3571 46.3184 11.7668 46.3184 11.0387V10.4412H48.0762V11.0387C48.0762 11.7668 48.6663 12.3571 49.3945 12.3571C50.1228 12.3571 50.7129 11.7668 50.7129 11.0387V7.20703C50.7129 6.47895 50.1228 5.88867 49.3945 5.88867C48.6663 5.88867 48.0762 6.47895 48.0762 7.20703V7.80434H46.3184V7.20703C46.3184 6.47895 45.7283 5.88867 45 5.88867C44.2717 5.88867 43.6816 6.47895 43.6816 7.20703V7.80434H41.9238V7.20703C41.9238 6.47895 41.3337 5.88867 40.6055 5.88867C39.8772 5.88867 39.2871 6.47895 39.2871 7.20703V11.0387C39.2871 11.7668 39.8772 12.3571 40.6055 12.3571Z" fill="#C24D3E"/>
</svg>
