<svg width="100" height="100" viewBox="0 0 100 100" fill="none" xmlns="http://www.w3.org/2000/svg">
<path d="M78.5156 32.4219C77.4376 32.4219 76.5625 33.297 76.5625 34.375C76.5625 35.453 77.4376 36.3281 78.5156 36.3281C79.5937 36.3281 80.4688 35.453 80.4688 34.375C80.4688 33.297 79.5937 32.4219 78.5156 32.4219Z" fill="#40DD55"/>
<path d="M39.6622 27.8046L42.1875 25.28L44.7128 27.8053C45.4758 28.5675 46.7117 28.5675 47.4747 27.8053L50 25.28L52.5253 27.8053C53.2883 28.5675 54.5242 28.5675 55.2872 27.8053L57.8125 25.28L60.3378 27.8053C61.1008 28.5675 62.3367 28.5675 63.0997 27.8053C63.8626 27.0424 63.8626 25.8057 63.0997 25.0427L59.1934 21.1365C58.4305 20.3743 57.1945 20.3743 56.4316 21.1365L53.9062 23.6618L51.3809 21.1365C50.618 20.3735 49.382 20.3735 48.6191 21.1365L46.0938 23.6618L43.5684 21.1365C42.8055 20.3735 41.5695 20.3735 40.8066 21.1365L36.9003 25.0427C36.1374 25.8049 36.1374 27.0416 36.9003 27.8046C37.6633 28.5675 38.8992 28.5675 39.6622 27.8046Z" fill="#40DD55"/>
<path d="M98.0469 5.07812H1.95312C0.874328 5.07812 0 5.95245 0 7.03125V81.25C0 82.3288 0.874328 83.2031 1.95312 83.2031H51.9531V92.8299C51.9531 93.6203 52.4292 94.3321 53.1586 94.6342C53.8887 94.9364 54.7287 94.7693 55.2872 94.2108L61.7188 87.78L68.1503 94.2116C68.7088 94.7701 69.5488 94.9364 70.2789 94.635C71.0083 94.3321 71.4844 93.6203 71.4844 92.8299V83.2031H98.0469C99.1257 83.2031 100 82.3288 100 81.25V7.03125C100 5.95245 99.1257 5.07812 98.0469 5.07812ZM50 55.8594C50 49.3973 55.2567 44.1406 61.7188 44.1406C68.1808 44.1406 73.4375 49.3973 73.4375 55.8594C73.4375 62.2841 68.206 67.5781 61.7188 67.5781C55.2406 67.5781 50 62.2948 50 55.8594ZM71.4844 68.0466C75.1709 65.0864 77.3438 60.6049 77.3438 55.8594C77.3438 47.2435 70.3346 40.2344 61.7188 40.2344C53.1029 40.2344 46.0938 47.2435 46.0938 55.8594C46.0938 60.6049 48.2666 65.0864 51.9531 68.0466V71.4844H17.3309C16.6229 68.7431 14.46 66.5802 11.7188 65.8722V22.4091C14.46 21.701 16.6229 19.5381 17.3309 16.7969H82.6691C83.3771 19.5381 85.54 21.701 88.2812 22.4091V65.8722C85.54 66.5802 83.3771 68.7431 82.6691 71.4844H71.4844V68.0466ZM67.5781 88.1149L63.0997 83.6365C62.3367 82.8735 61.1008 82.8735 60.3378 83.6365L55.8594 88.1149V70.3445C57.7065 71.0945 59.6878 71.4844 61.7188 71.4844C63.7497 71.4844 65.731 71.0945 67.5781 70.3445V88.1149ZM96.0938 79.2969H71.4844V75.3906H84.375C85.4538 75.3906 86.3281 74.5163 86.3281 73.4375C86.3281 71.2837 88.0806 69.5312 90.2344 69.5312C91.3132 69.5312 92.1875 68.6569 92.1875 67.5781V20.7031C92.1875 19.6243 91.3132 18.75 90.2344 18.75C88.0806 18.75 86.3281 16.9975 86.3281 14.8438C86.3281 13.765 85.4538 12.8906 84.375 12.8906H15.625C14.5462 12.8906 13.6719 13.765 13.6719 14.8438C13.6719 16.9975 11.9194 18.75 9.76562 18.75C8.68683 18.75 7.8125 19.6243 7.8125 20.7031V67.5781C7.8125 68.6569 8.68683 69.5312 9.76562 69.5312C11.9194 69.5312 13.6719 71.2837 13.6719 73.4375C13.6719 74.5163 14.5462 75.3906 15.625 75.3906H51.9531V79.2969H3.90625V8.98438H96.0938V79.2969Z" fill="#40DD55"/>
<path d="M69.5312 55.8594C69.5312 51.5518 66.0263 48.0469 61.7188 48.0469C57.4112 48.0469 53.9062 51.5518 53.9062 55.8594C53.9062 60.1669 57.4112 63.6719 61.7188 63.6719C66.0263 63.6719 69.5312 60.1669 69.5312 55.8594ZM57.8125 55.8594C57.8125 53.7056 59.565 51.9531 61.7188 51.9531C63.8725 51.9531 65.625 53.7056 65.625 55.8594C65.625 58.0132 63.8725 59.7656 61.7188 59.7656C59.565 59.7656 57.8125 58.0132 57.8125 55.8594Z" fill="#40DD55"/>
<path d="M70.7031 32.4219H21.4844C20.4056 32.4219 19.5312 33.2962 19.5312 34.375C19.5312 35.4538 20.4056 36.3281 21.4844 36.3281H70.7031C71.7819 36.3281 72.6562 35.4538 72.6562 34.375C72.6562 33.2962 71.7819 32.4219 70.7031 32.4219Z" fill="#40DD55"/>
<path d="M38.2812 44.1406H21.4844C20.4056 44.1406 19.5312 45.015 19.5312 46.0938C19.5312 47.1725 20.4056 48.0469 21.4844 48.0469H38.2812C39.36 48.0469 40.2344 47.1725 40.2344 46.0938C40.2344 45.015 39.36 44.1406 38.2812 44.1406Z" fill="#40DD55"/>
<path d="M38.2812 55.8594H21.4844C20.4056 55.8594 19.5312 56.7337 19.5312 57.8125C19.5312 58.8913 20.4056 59.7656 21.4844 59.7656H38.2812C39.36 59.7656 40.2344 58.8913 40.2344 57.8125C40.2344 56.7337 39.36 55.8594 38.2812 55.8594Z" fill="#40DD55"/>
</svg>
