<svg width="30" height="30" viewBox="0 0 30 30" fill="none" xmlns="http://www.w3.org/2000/svg">
<path d="M22.1403 15.3665C22.0243 15.2503 21.8865 15.1581 21.7349 15.0953C21.5832 15.0324 21.4207 15 21.2565 15C21.0924 15 20.9298 15.0324 20.7782 15.0953C20.6265 15.1581 20.4888 15.2503 20.3728 15.3665L18.3803 17.359C17.4565 17.084 15.7328 16.459 14.6403 15.3665C13.5478 14.274 12.9228 12.5503 12.6478 11.6265L14.6403 9.634C14.7565 9.51802 14.8486 9.38026 14.9115 9.22862C14.9744 9.07697 15.0068 8.91442 15.0068 8.75025C15.0068 8.58608 14.9744 8.42353 14.9115 8.27188C14.8486 8.12024 14.7565 7.98249 14.6403 7.8665L9.64027 2.8665C9.52429 2.75032 9.38653 2.65815 9.23489 2.59526C9.08324 2.53237 8.92069 2.5 8.75652 2.5C8.59235 2.5 8.4298 2.53237 8.27815 2.59526C8.12651 2.65815 7.98876 2.75032 7.87277 2.8665L4.48277 6.2565C4.00777 6.7315 3.74027 7.384 3.75027 8.05025C3.77902 9.83025 4.25027 16.0128 9.12277 20.8853C13.9953 25.7578 20.1778 26.2278 21.959 26.2578H21.994C22.654 26.2578 23.2778 25.9978 23.7503 25.5252L27.1403 22.1353C27.2565 22.0193 27.3486 21.8815 27.4115 21.7299C27.4744 21.5782 27.5068 21.4157 27.5068 21.2515C27.5068 21.0873 27.4744 20.9248 27.4115 20.7731C27.3486 20.6215 27.2565 20.4837 27.1403 20.3678L22.1403 15.3665ZM21.9815 23.7565C20.4215 23.7302 15.084 23.3115 10.8903 19.1165C6.68277 14.909 6.27527 9.55275 6.25027 8.024L8.75652 5.51775L11.989 8.75025L10.3728 10.3665C10.2258 10.5133 10.1178 10.6944 10.0585 10.8935C9.9991 11.0925 9.99027 11.3032 10.0328 11.5065C10.0628 11.6503 10.7965 15.059 12.8715 17.134C14.9465 19.209 18.3553 19.9428 18.499 19.9728C18.7022 20.0164 18.9131 20.0083 19.1123 19.9491C19.3115 19.8899 19.4927 19.7816 19.639 19.634L21.2565 18.0178L24.489 21.2503L21.9815 23.7565Z" fill="#40DD55"/>
</svg>
