<svg width="46" height="45" viewBox="0 0 46 45" fill="none" xmlns="http://www.w3.org/2000/svg">
<g clip-path="url(#clip0)">
<path d="M23 0C10.5668 0 0.5 10.0668 0.5 22.5C0.5 34.9332 10.5668 45 23 45C35.4332 45 45.5 34.9332 45.5 22.5C45.5 10.0668 35.4332 0 23 0ZM29.2166 13.7567H25.9278C25.4064 13.7567 24.6444 14.0374 24.6444 15.1604V18.2086H29.1765L28.6551 23.3824H24.6444V38.1016H18.5481V23.3824H15.6604V18.2086H18.5481V14.8797C18.5481 12.4733 19.6711 8.74332 24.6845 8.74332H29.1765V13.7567H29.2166Z" fill="#F2F2F2"/>
</g>
<defs>
<clipPath id="clip0">
<rect width="45" height="45" fill="white" transform="translate(0.5)"/>
</clipPath>
</defs>
</svg>
