<svg width="45" height="45" viewBox="0 0 45 45" fill="none" xmlns="http://www.w3.org/2000/svg">
<path d="M26.8066 22.5C26.8066 24.8785 24.8785 26.8066 22.5 26.8066C20.1215 26.8066 18.1934 24.8785 18.1934 22.5C18.1934 20.1215 20.1215 18.1934 22.5 18.1934C24.8785 18.1934 26.8066 20.1215 26.8066 22.5Z" fill="#F2F2F2"/>
<path d="M32.5717 14.8803C32.3646 14.3194 32.0344 13.8116 31.6052 13.3948C31.1884 12.9656 30.681 12.6354 30.1196 12.4283C29.6644 12.2515 28.9805 12.0411 27.7208 11.9837C26.3582 11.9216 25.9496 11.9082 22.4999 11.9082C19.0499 11.9082 18.6413 11.9212 17.279 11.9834C16.0194 12.0411 15.3351 12.2515 14.8802 12.4283C14.3189 12.6354 13.8111 12.9656 13.3947 13.3948C12.9655 13.8116 12.6352 14.319 12.4279 14.8803C12.2511 15.3356 12.0406 16.0198 11.9833 17.2795C11.9211 18.6418 11.9077 19.0503 11.9077 22.5004C11.9077 25.9501 11.9211 26.3587 11.9833 27.7213C12.0406 28.981 12.2511 29.6649 12.4279 30.1201C12.6352 30.6814 12.9652 31.1889 13.3943 31.6057C13.8111 32.0348 14.3186 32.3651 14.8799 32.5721C15.3351 32.7493 16.0194 32.9597 17.279 33.0171C18.6413 33.0792 19.0495 33.0922 22.4996 33.0922C25.95 33.0922 26.3585 33.0792 27.7205 33.0171C28.9802 32.9597 29.6644 32.7493 30.1196 32.5721C31.2464 32.1375 32.137 31.2469 32.5717 30.1201C32.7485 29.6649 32.9589 28.981 33.0166 27.7213C33.0787 26.3587 33.0918 25.9501 33.0918 22.5004C33.0918 19.0503 33.0787 18.6418 33.0166 17.2795C32.9593 16.0198 32.7488 15.3356 32.5717 14.8803V14.8803ZM22.4999 29.1344C18.8357 29.1344 15.8652 26.1643 15.8652 22.5001C15.8652 18.8358 18.8357 15.8657 22.4999 15.8657C26.1639 15.8657 29.1343 18.8358 29.1343 22.5001C29.1343 26.1643 26.1639 29.1344 22.4999 29.1344ZM29.3966 17.1538C28.5404 17.1538 27.8462 16.4596 27.8462 15.6034C27.8462 14.7471 28.5404 14.0529 29.3966 14.0529C30.2529 14.0529 30.9471 14.7471 30.9471 15.6034C30.9467 16.4596 30.2529 17.1538 29.3966 17.1538Z" fill="#F2F2F2"/>
<path d="M22.5 0C10.0755 0 0 10.0755 0 22.5C0 34.9245 10.0755 45 22.5 45C34.9245 45 45 34.9245 45 22.5C45 10.0755 34.9245 0 22.5 0ZM35.342 27.8267C35.2795 29.202 35.0608 30.141 34.7415 30.9629C34.0703 32.6984 32.6984 34.0703 30.9629 34.7415C30.1413 35.0608 29.202 35.2792 27.827 35.342C26.4492 35.4048 26.0091 35.4199 22.5003 35.4199C18.9912 35.4199 18.5514 35.4048 17.1733 35.342C15.7983 35.2792 14.859 35.0608 14.0374 34.7415C13.175 34.4171 12.3943 33.9086 11.7488 33.2512C11.0917 32.606 10.5833 31.825 10.2588 30.9629C9.93954 30.1413 9.72084 29.202 9.65836 27.827C9.59484 26.4489 9.58008 26.0088 9.58008 22.5C9.58008 18.9912 9.59484 18.5511 9.65801 17.1733C9.7205 15.798 9.93885 14.859 10.2581 14.0371C10.5826 13.175 11.0914 12.394 11.7488 11.7488C12.394 11.0914 13.175 10.5829 14.0371 10.2585C14.859 9.93919 15.798 9.72084 17.1733 9.65801C18.5511 9.59518 18.9912 9.58008 22.5 9.58008C26.0088 9.58008 26.4489 9.59518 27.8267 9.65836C29.202 9.72084 30.141 9.93919 30.9629 10.2581C31.825 10.5826 32.606 11.0914 33.2515 11.7488C33.9086 12.3943 34.4174 13.175 34.7415 14.0371C35.0611 14.859 35.2795 15.798 35.3423 17.1733C35.4052 18.5511 35.4199 18.9912 35.4199 22.5C35.4199 26.0088 35.4052 26.4489 35.342 27.8267V27.8267Z" fill="#F2F2F2"/>
</svg>
