<svg width="45" height="45" viewBox="0 0 45 45" fill="none" xmlns="http://www.w3.org/2000/svg">
<path d="M22.5 0C10.0668 0 0 10.0668 0 22.5C0 34.9332 10.0668 45 22.5 45C34.9332 45 45 34.9332 45 22.5C45 10.0668 34.9332 0 22.5 0ZM35.3743 32.3663L31.4439 32.4064C31.4439 32.4064 30.6016 32.5668 29.4786 31.8048C27.9947 30.8021 26.5909 28.1551 25.508 28.516C24.4251 28.877 24.4652 31.2433 24.4652 31.2433C24.4652 31.2433 24.4652 31.7647 24.2246 32.0053C23.9439 32.2861 23.4225 32.3663 23.4225 32.3663H21.6578C21.6578 32.3663 17.7674 32.607 14.3182 29.0374C10.5882 25.1471 7.25936 17.4064 7.25936 17.4064C7.25936 17.4064 7.05882 16.885 7.25936 16.6444C7.5 16.3636 8.14171 16.3636 8.14171 16.3636L12.3529 16.3235C12.3529 16.3235 12.754 16.4037 13.0348 16.6043C13.2754 16.7647 13.3957 17.0856 13.3957 17.0856C13.3957 17.0856 14.0775 18.8102 15 20.3743C16.7647 23.4225 17.5668 24.1043 18.1684 23.7433C19.0508 23.262 18.7701 19.4519 18.7701 19.4519C18.7701 19.4519 18.7701 18.0481 18.3289 17.4465C17.9679 16.9652 17.3262 16.8449 17.0053 16.8048C16.7647 16.7647 17.1658 16.2032 17.6471 15.9626C18.4091 15.6016 19.7326 15.5615 21.3369 15.6016C22.5802 15.6016 22.9412 15.6818 23.4225 15.8021C24.8663 16.1631 24.385 17.5267 24.385 20.7754C24.385 21.8182 24.1845 23.3021 24.9465 23.7834C25.2674 23.984 26.0695 23.8235 28.0348 20.4545C28.9572 18.8503 29.6791 17.0053 29.6791 17.0053C29.6791 17.0053 29.8396 16.6845 30.0802 16.5241C30.3209 16.3636 30.6417 16.4037 30.6417 16.4037L35.0936 16.3636C35.0936 16.3636 36.4171 16.2032 36.6578 16.8048C36.8984 17.4465 36.1765 18.9305 34.3316 21.3369C31.3636 25.3075 31.0027 24.9465 33.4893 27.2326C35.8556 29.4385 36.3369 30.4813 36.4171 30.6417C37.4599 32.246 35.3743 32.3663 35.3743 32.3663Z" fill="#F2F2F2"/>
</svg>
